# xmcd
# 
# Track frame offsets:
#     150
#     18260
#     39502
#     60345
#     80622
#     103832
#     119902
#     138745
#     157912
#     180165
# 
# Disc length: 2661
# 
# Revision: 2
# Processed by: cddbd v1.5.2PL0 Copyright (c) Steve Scherf et al.
# Submitted via: fre:ac v1.0.31
# 
DISCID=7d0a630a
DTITLE=KEY WEST CLUB - UNBELIEVABLE
DYEAR=1991
DGENRE=Pop
TTITLE0=September Tears
TTITLE1=COCONUTS HEAVEN
TTITLE2=UNBELIEBABLE
TTITLE3=Silent Beach
TTITLE4=True Love
TTITLE5=TICKET TO THE LONELINESS
TTITLE6=LOVE・Secret Version
TTITLE7=真夏のSolitude
TTITLE8=夏色のロマンス
TTITLE9=Tropical Heart
EXTD=テイチクレコード
EXTT0=
EXTT1=
EXTT2=
EXTT3=
EXTT4=
EXTT5=
EXTT6=
EXTT7=
EXTT8=
EXTT9=
PLAYORDER=
